<?xml version="1.0" standalone="no"?>
<!DOCTYPE svg PUBLIC "-//W3C//DTD SVG 20010904//EN"
 "http://www.w3.org/TR/2001/REC-SVG-20010904/DTD/svg10.dtd">
<svg version="1.0" xmlns="http://www.w3.org/2000/svg"
 width="1772.000000pt" height="2126.000000pt" viewBox="0 0 1772.000000 2126.000000"
 preserveAspectRatio="xMidYMid meet">

<g transform="translate(0.000000,2126.000000) scale(0.100000,-0.100000)"
fill="#000000" stroke="none">
<path d="M8565 18779 c-1834 -71 -3580 -890 -4820 -2259 -1331 -1469 -1958
-3409 -1744 -5395 297 -2764 2265 -5100 4944 -5870 419 -120 809 -194 1275
-241 214 -21 824 -30 1060 -15 1043 67 2022 351 2914 845 1218 675 2197 1691
2820 2926 163 322 263 558 371 870 356 1035 459 2160 299 3259 -213 1458 -890
2806 -1939 3856 -566 568 -1154 987 -1875 1338 -436 213 -820 355 -1275 472
-499 129 -934 192 -1477 215 -253 10 -272 10 -553 -1z m935 -373 c403 -41 753
-106 1116 -205 2085 -570 3762 -2163 4439 -4217 149 -452 247 -922 302 -1444
25 -239 25 -934 0 -1180 -102 -1011 -396 -1910 -899 -2747 -433 -722 -1018
-1367 -1698 -1873 -868 -646 -1913 -1071 -2980 -1214 -344 -46 -434 -51 -890
-51 -466 0 -584 8 -945 61 -2222 328 -4124 1796 -5009 3867 -262 612 -418
1224 -493 1932 -26 241 -26 995 0 1230 59 541 149 964 307 1435 333 997 862
1841 1621 2585 385 377 737 650 1201 929 887 533 1890 841 2963 910 149 9 817
-3 965 -18z"/>
<path d="M8606 18307 c-31 -76 -31 -79 4 -75 26 2 36 12 61 56 l31 52 -41 0
c-37 0 -42 -3 -55 -33z"/>
<path d="M8573 18203 l-43 -4 19 -27 c28 -39 41 -321 17 -358 l-16 -24 64 0
c35 0 72 3 80 6 15 6 15 8 -1 19 -14 11 -19 39 -26 179 -9 147 -8 168 7 191
l16 25 -37 -2 c-21 -1 -57 -3 -80 -5z"/>
<path d="M8855 18190 c17 -19 15 -25 -45 -185 -35 -91 -69 -170 -76 -176 -27
-22 -13 -29 56 -29 63 0 70 2 62 17 -6 10 -6 27 0 45 10 27 12 28 79 28 65 0
70 -2 81 -26 9 -20 9 -30 0 -45 -12 -18 -9 -19 64 -19 73 0 76 1 62 18 -9 9
-46 101 -83 205 l-68 187 -75 0 c-74 0 -75 0 -57 -20z m119 -207 c7 -22 4 -23
-39 -23 -34 0 -46 4 -43 13 3 6 13 36 23 66 l18 55 17 -45 c10 -24 21 -54 24
-66z"/>
<path d="M8310 18185 c-63 -7 -121 -13 -128 -14 -10 -1 -8 -8 6 -26 16 -20 22
-54 32 -185 10 -122 11 -163 2 -172 -24 -24 -10 -29 61 -22 39 3 74 8 76 10 2
2 -4 13 -13 23 -11 12 -20 43 -23 79 l-6 60 46 7 c27 4 53 3 65 -4 11 -6 23
-11 26 -11 4 0 -4 111 -9 118 -1 1 -15 -4 -31 -13 -16 -8 -45 -15 -65 -15 -34
0 -37 3 -43 35 -4 20 -4 40 -1 45 8 13 141 13 167 -1 29 -16 32 -6 13 50 -13
41 -21 51 -38 50 -12 -1 -74 -8 -137 -14z"/>
<path d="M9310 18195 c0 -5 6 -16 14 -24 7 -9 35 -65 61 -126 54 -125 61 -187
25 -237 l-20 -28 22 -4 c13 -3 47 -7 76 -10 48 -5 53 -4 45 12 -4 9 -7 44 -7
77 1 58 5 66 64 150 35 50 76 104 92 121 l29 31 -32 7 c-17 3 -49 6 -70 6 -32
0 -39 -3 -39 -20 0 -11 -17 -46 -37 -76 l-38 -57 -24 54 c-13 30 -24 69 -24
87 -1 26 -5 32 -23 32 -11 0 -42 3 -68 6 -25 4 -46 3 -46 -1z"/>
<path d="M7915 18135 c-5 -2 -27 -6 -48 -10 -38 -6 -39 -7 -21 -26 18 -20 17
-26 -15 -187 -33 -169 -43 -202 -62 -202 -6 0 -37 25 -69 56 l-58 55 25 37
c35 52 29 121 -14 164 -41 40 -94 46 -198 20 -44 -11 -92 -23 -108 -26 l-27
-6 19 -28 c11 -15 36 -96 56 -179 29 -124 34 -157 24 -174 -11 -21 -10 -22 27
-16 22 4 56 12 78 18 38 10 38 11 18 29 -20 19 -47 104 -37 121 13 21 43 6
101 -52 l62 -61 118 23 c66 12 121 24 123 25 2 2 -2 10 -9 19 -18 21 -5 62 22
68 13 3 47 9 75 13 50 6 53 5 62 -20 6 -14 8 -33 4 -42 -5 -15 0 -16 43 -10
27 4 59 10 72 13 l23 5 -20 22 c-11 11 -62 95 -113 186 -79 140 -97 165 -118
167 -14 1 -29 0 -35 -2z m80 -235 c-3 -6 -22 -10 -42 -10 l-35 0 7 53 c4 28
10 56 12 60 3 5 18 -14 35 -42 16 -29 26 -56 23 -61z m-431 74 c44 -17 39 -76
-7 -93 -68 -25 -75 -23 -86 16 -16 56 -14 62 22 72 41 12 52 12 71 5z"/>
<path d="M9940 18079 c-50 -30 -78 -66 -96 -127 -26 -87 -5 -162 60 -219 41
-37 81 -50 162 -55 l61 -4 22 59 c23 58 23 79 -1 59 -7 -5 -31 -15 -54 -22
-36 -11 -47 -10 -87 8 -56 25 -82 67 -74 124 7 52 31 87 73 104 48 20 99 9
144 -32 21 -19 40 -34 44 -34 3 0 6 28 6 63 l0 63 -53 17 c-76 24 -163 22
-207 -4z"/>
<path d="M10282 18030 c18 -28 -54 -326 -84 -353 -12 -10 -19 -19 -17 -21 5
-5 124 -36 138 -36 8 0 7 6 -1 20 -18 28 54 326 84 353 26 22 23 25 -43 43
-78 20 -92 19 -77 -6z"/>
<path d="M10486 17973 c8 -41 -79 -323 -107 -345 -16 -13 -18 -19 -8 -23 28
-10 283 -84 284 -82 28 47 52 97 48 101 -3 2 -17 0 -33 -5 -22 -8 -45 -5 -98
10 l-70 21 12 39 c6 22 14 42 17 45 9 10 83 -15 105 -35 23 -21 18 -28 50 82
3 12 -4 16 -38 16 -24 0 -55 5 -70 11 -26 11 -27 13 -16 44 6 18 12 35 14 36
7 10 116 -31 143 -53 l30 -26 6 46 c4 24 5 51 2 58 -4 11 -237 87 -267 87 -5
0 -7 -12 -4 -27z"/>
<path d="M7190 17969 c-14 -4 -47 -12 -75 -19 -147 -33 -213 -176 -144 -311
66 -131 252 -145 368 -28 21 20 29 35 23 43 -17 20 -54 146 -48 161 8 21 -10
19 -103 -10 l-81 -26 0 -44 c0 -25 1 -45 3 -45 1 0 20 9 42 20 51 26 62 25 69
-4 3 -13 8 -31 11 -39 8 -19 -51 -47 -98 -47 -60 0 -117 63 -117 130 0 87 88
145 181 120 23 -6 43 -9 46 -7 2 3 -8 29 -24 59 -25 49 -30 54 -53 47z"/>
<path d="M10836 17878 c12 -36 9 -49 -46 -196 -32 -85 -60 -143 -73 -154 -22
-17 -22 -17 27 -37 26 -12 59 -24 73 -27 23 -6 24 -5 14 14 -9 17 -4 40 25
122 20 55 38 99 41 97 2 -3 15 -47 29 -98 54 -202 52 -196 84 -209 18 -8 35
-9 39 -4 5 5 34 79 66 164 38 103 65 163 82 178 14 13 24 24 22 26 -7 6 -119
46 -128 46 -5 0 -6 -11 -3 -25 2 -14 -10 -64 -29 -117 l-33 -91 -41 144 c-39
140 -42 144 -75 160 -19 9 -46 20 -58 24 -22 6 -23 5 -16 -17z"/>
<path d="M6625 17782 c-165 -78 -172 -307 -12 -387 83 -41 170 -30 238 32 55
50 72 87 73 158 1 74 -34 142 -96 182 -53 36 -144 42 -203 15z m135 -85 c59
-30 87 -116 55 -176 -15 -31 -69 -61 -108 -61 -40 0 -90 41 -106 87 -37 105
62 199 159 150z"/>
<path d="M11282 17649 c-70 -35 -121 -118 -122 -200 0 -19 12 -59 26 -88 30
-59 88 -104 152 -116 20 -4 42 -11 49 -16 8 -7 24 8 53 51 l42 62 -33 -8
c-137 -33 -236 74 -169 184 55 90 177 76 229 -26 21 -41 22 -40 44 48 l13 55
-74 37 c-89 45 -144 49 -210 17z"/>
<path d="M6226 17599 l-119 -61 26 -21 c35 -30 161 -299 152 -327 -4 -12 -2
-20 4 -20 6 0 70 29 142 66 91 45 129 69 125 79 -2 7 -8 30 -12 49 -8 46 -18
52 -34 21 -7 -13 -44 -40 -81 -60 l-68 -36 -21 40 c-11 22 -20 43 -20 46 0 11
95 46 112 42 23 -6 23 -8 -7 60 -25 56 -26 56 -41 35 -14 -20 -92 -68 -99 -60
-1 2 -10 18 -19 35 l-16 33 52 26 c32 17 69 27 95 27 l42 0 -31 44 c-17 24
-39 43 -47 42 -9 0 -70 -27 -135 -60z"/>
<path d="M8650 17613 c-503 -27 -917 -96 -1366 -229 -737 -217 -1421 -586
-2039 -1100 -167 -139 -540 -512 -679 -679 -626 -752 -1039 -1605 -1225 -2530
-114 -567 -141 -1199 -75 -1770 101 -886 410 -1738 899 -2475 932 -1408 2428
-2327 4090 -2514 840 -95 1693 -2 2485 269 438 150 905 381 1290 638 675 450
1243 1033 1676 1721 951 1510 1127 3422 468 5085 -581 1464 -1731 2615 -3195
3195 -728 288 -1576 430 -2329 389z m720 -447 c741 -78 1431 -293 2053 -638
59 -33 107 -62 107 -64 0 -2 -1203 -4 -2672 -4 -2667 0 -2673 0 -2648 20 45
36 541 277 687 334 507 200 1067 327 1608 365 180 13 689 5 865 -13z m2663
-1033 c332 -249 633 -536 902 -858 557 -667 951 -1486 1120 -2330 68 -344 95
-587 102 -950 6 -300 -4 -509 -38 -775 -191 -1513 -1018 -2858 -2293 -3729
-66 -44 -123 -81 -128 -81 -4 0 5 26 21 58 55 111 121 289 156 425 l35 138 0
4089 c0 2846 3 4090 10 4090 6 0 57 -35 113 -77z m-6300 -4035 l2 -4063 21
-90 c33 -141 83 -311 114 -386 15 -38 26 -69 24 -69 -2 0 -37 23 -76 52 -554
393 -1007 858 -1378 1413 -776 1162 -1059 2608 -780 3984 230 1130 822 2155
1684 2916 139 123 364 304 378 305 4 0 9 -1828 11 -4062z m5820 2725 c4 -698
7 -1724 7 -2280 l0 -1013 -1165 0 -1165 0 0 204 0 203 75 5 c60 4 84 11 122
34 91 56 143 157 143 273 0 83 -17 128 -65 180 l-43 46 271 0 c241 0 276 2
304 18 42 22 63 64 63 121 0 57 -43 111 -101 126 -25 7 -225 10 -561 10 -468
-1 -523 0 -526 14 -3 14 55 16 582 16 l586 0 0 950 0 950 -85 0 -85 0 0 74 0
74 -41 7 c-54 9 -201 -2 -327 -26 -173 -33 -358 -106 -507 -201 -55 -35 -182
-138 -224 -182 l-34 -35 -68 64 c-170 160 -387 277 -631 340 -85 23 -132 28
-270 32 l-168 6 0 -76 0 -76 -87 -3 -88 -3 0 -945 0 -945 585 -5 c552 -5 585
-6 588 -23 3 -17 -3 -17 -90 -10 -158 13 -906 10 -955 -5 -118 -35 -157 -160
-73 -234 l30 -28 310 0 c171 0 310 -4 310 -8 0 -5 -13 -21 -30 -37 -77 -74
-99 -217 -49 -325 53 -111 133 -165 246 -165 l73 0 0 -207 0 -208 -1185 0
-1185 0 0 2280 0 2280 2753 0 2754 0 6 -1267z m-3562 -133 c252 -54 511 -193
677 -362 l52 -54 -2 -652 -3 -652 -50 36 c-194 138 -453 228 -751 261 l-154
17 0 719 0 720 73 -7 c39 -4 111 -16 158 -26z m1794 -182 c0 -115 -1 -437 -3
-716 l-2 -509 -157 -17 c-166 -18 -265 -39 -385 -82 -97 -35 -247 -111 -332
-168 -38 -25 -70 -46 -72 -46 -6 0 -5 436 3 898 l6 422 62 63 c78 79 185 153
312 216 174 87 401 152 513 148 l55 -2 0 -207z m-2145 -637 c0 -539 3 -691 13
-698 6 -6 73 -13 147 -17 204 -9 393 -52 584 -132 85 -36 136 -71 85 -60 -40
9 -476 84 -584 101 -55 8 -116 19 -135 25 -49 14 -76 13 -94 -6 -21 -21 -20
-67 2 -86 21 -20 259 -66 399 -78 58 -5 108 -12 111 -15 3 -3 -129 -4 -294 -3
l-299 3 -3 815 c-1 448 0 821 3 828 2 6 18 12 35 12 l30 0 0 -689z m2328 -139
c2 -653 0 -823 -10 -827 -7 -2 -150 -6 -318 -9 -338 -6 -352 1 -70 35 200 23
304 44 325 66 8 8 15 27 15 42 0 76 -35 74 -729 -49 -63 -11 -116 -18 -118
-16 -8 7 115 60 229 97 171 56 294 80 448 86 74 3 143 10 153 15 16 8 17 51
17 692 0 375 3 686 7 690 4 4 16 6 28 4 20 -3 20 -6 23 -826z m-1503 -1356
c54 -25 119 -90 140 -140 7 -17 18 -58 25 -91 7 -33 17 -66 22 -72 8 -10 53
-13 164 -13 176 0 176 0 188 94 31 244 366 342 416 120 18 -81 -19 -159 -86
-183 -34 -12 -44 -12 -70 0 -20 10 -29 22 -29 38 0 25 10 33 60 47 40 13 63
54 47 88 -26 57 -139 55 -205 -4 l-32 -28 -3 -351 -3 -351 -49 0 -50 0 0 190
c0 232 -3 242 -74 238 -46 -3 -50 -5 -58 -33 -5 -16 -6 -112 -2 -212 l6 -183
-50 0 -50 0 2 183 c1 239 -13 275 -99 247 l-35 -12 0 -209 0 -209 -50 0 -49 0
-3 344 -3 344 -25 28 c-14 14 -43 35 -65 45 -85 39 -155 13 -155 -57 0 -31 4
-37 38 -50 95 -38 106 -60 47 -89 -63 -29 -127 6 -154 84 -52 155 89 270 244
197z m489 12 c-5 -7 -20 -30 -35 -51 -15 -21 -33 -60 -40 -87 -10 -39 -17 -49
-37 -53 -48 -9 -76 6 -88 49 -17 58 -40 99 -71 129 l-28 25 153 0 c120 0 152
-3 146 -12z m1400 -1230 c-9 -14 -1929 -2407 -2007 -2500 -39 -48 -53 -58 -79
-58 -17 0 -39 6 -47 13 -11 9 -40 11 -89 9 -72 -4 -74 -4 -68 -27 4 -15 0 -29
-10 -40 -27 -27 -73 8 -113 87 l-35 66 33 73 c47 107 55 219 15 219 -23 0 -27
25 -9 59 15 30 15 32 -12 66 -15 19 -39 37 -54 40 -41 9 -236 172 -265 221
-14 24 -60 39 -156 52 -43 5 -89 17 -102 26 -20 12 -38 57 -95 233 -125 389
-131 409 -129 497 2 69 0 80 -18 95 -15 12 -23 34 -29 76 -9 79 -20 97 -53 93
-20 -2 -26 1 -24 12 25 110 25 124 -1 145 -19 15 -24 27 -20 46 3 19 -3 35
-24 60 -16 19 -32 42 -36 52 -4 9 -15 17 -25 17 -10 0 -24 11 -30 24 -12 27
-50 41 -142 52 -61 7 -73 0 -85 -49 -6 -23 -4 -27 14 -27 12 0 44 -21 71 -46
41 -38 48 -50 40 -64 -6 -10 -10 -34 -10 -53 0 -19 -7 -40 -15 -47 -26 -22
-14 -54 25 -66 41 -13 50 -40 22 -60 -16 -11 -19 -22 -15 -52 4 -27 1 -42 -11
-51 -27 -22 -20 -50 11 -48 18 1 28 -3 31 -15 2 -12 -5 -17 -30 -20 -32 -3
-33 -5 -36 -50 -3 -47 -4 -48 -56 -73 -79 -37 -97 -91 -51 -151 14 -18 25 -35
25 -38 0 -3 -16 -6 -36 -6 -19 0 -44 -4 -54 -10 -27 -14 -64 -85 -94 -179 -15
-46 -35 -95 -46 -110 -16 -23 -17 -32 -8 -77 9 -39 9 -59 -1 -81 -19 -46 -72
-91 -137 -118 -71 -28 -88 -50 -110 -135 -13 -51 -15 -90 -10 -181 7 -130 3
-147 -58 -253 -32 -57 -40 -80 -41 -122 0 -74 26 -107 92 -115 28 -4 71 -19
97 -34 47 -28 48 -28 149 -18 95 10 103 9 115 -8 11 -17 27 -19 118 -19 91 0
107 -3 124 -20 11 -11 20 -26 20 -34 0 -7 24 -36 53 -63 71 -68 131 -82 230
-57 l67 18 53 -26 c28 -14 68 -29 87 -33 43 -9 60 -22 60 -46 0 -26 21 -35 35
-16 8 12 27 17 59 17 40 0 48 4 58 25 12 26 17 29 57 25 13 -1 35 4 47 11 19
10 29 10 48 0 13 -8 29 -10 35 -7 6 4 20 2 30 -4 17 -9 23 -6 36 20 8 16 22
30 31 30 11 0 12 -4 4 -19 -15 -28 8 -39 29 -14 9 10 39 38 67 61 43 35 52 48
57 82 8 61 19 69 82 63 53 -6 56 -5 89 32 29 32 39 36 63 31 40 -10 83 -27 83
-35 0 -3 -265 -337 -590 -741 -675 -841 -581 -754 -744 -699 -200 67 -345 156
-497 308 -152 152 -241 297 -308 496 -63 188 -61 132 -61 1778 l0 1497 2161 0
c1725 0 2159 -3 2153 -12z m1210 -609 c4 -341 6 -623 3 -625 -2 -3 -89 85
-192 195 -103 110 -191 198 -196 196 -4 -3 -204 -245 -445 -538 -240 -292
-441 -536 -445 -541 -9 -10 -715 664 -711 677 1 5 220 290 485 633 l482 623
506 1 506 0 7 -621z m-178 -531 l194 -191 0 -142 0 -142 -216 -272 c-118 -149
-220 -271 -225 -271 -13 0 -20 19 -79 247 -29 111 -56 207 -60 213 -5 9 -102
-66 -296 -229 -158 -132 -289 -239 -291 -237 -3 2 44 123 104 268 l110 263
274 342 c151 189 278 343 282 343 5 0 96 -86 203 -192z m-1564 -458 c156 -160
285 -295 286 -300 2 -6 -36 -10 -100 -11 l-103 0 -220 -294 c-121 -162 -226
-294 -232 -294 -7 -1 -13 0 -13 2 0 9 -119 469 -122 472 -2 1 -133 -108 -291
-242 -158 -134 -292 -243 -296 -241 -5 2 22 78 59 171 l69 167 333 430 c183
237 336 430 340 430 3 0 134 -131 290 -290z"/>
<path d="M8848 15797 c-144 -54 -228 -169 -228 -314 0 -69 -1 -73 -28 -87 -20
-10 -46 -13 -83 -10 -56 6 -149 -21 -286 -81 -59 -26 -63 -38 -38 -99 l15 -36
-54 0 c-39 0 -60 -6 -80 -21 -32 -25 -35 -70 -6 -99 20 -20 33 -20 628 -20
598 0 609 0 630 20 13 12 22 33 22 50 0 54 -31 70 -139 71 -93 0 -95 1 -71 16
14 9 48 40 76 68 154 155 100 419 -107 526 -55 28 -194 37 -251 16z m200 -92
c49 -21 110 -80 133 -130 23 -49 24 -133 4 -183 -51 -121 -210 -193 -323 -146
-116 48 -183 201 -137 312 51 121 210 193 323 147z m-357 -427 c12 -18 40 -50
63 -70 l41 -37 -219 -1 c-125 0 -216 4 -210 9 5 4 39 16 76 26 76 20 128 48
128 69 0 15 41 34 77 35 14 1 30 -11 44 -31z"/>
<path d="M11335 14874 c-129 -66 -300 -212 -324 -277 -6 -16 -15 -26 -20 -22
-11 6 -115 -134 -170 -230 -22 -38 -45 -92 -52 -120 -6 -27 -15 -58 -20 -67
-5 -10 -10 -35 -10 -55 -1 -21 -3 -30 -6 -20 -2 9 -8 17 -12 17 -11 0 -44
-245 -37 -276 4 -20 4 -24 -3 -15 -15 23 -24 -88 -19 -224 l6 -122 -30 -9
c-23 -7 -34 -19 -44 -49 -8 -22 -14 -42 -14 -44 0 -2 13 11 29 28 16 17 35 31
43 31 8 -1 7 -4 -4 -11 -10 -5 -18 -14 -18 -20 0 -5 9 -4 20 3 15 10 22 10 31
1 18 -18 3 -43 -26 -43 -18 0 -25 -5 -25 -19 0 -11 5 -23 10 -26 6 -3 10 -17
10 -31 0 -52 -44 -108 -99 -125 -73 -23 -100 -40 -110 -72 -14 -38 -5 -88 25
-149 13 -26 24 -52 24 -58 0 -6 -31 -10 -77 -10 -43 0 -83 -4 -89 -8 -11 -7
-34 -45 -34 -56 0 -3 189 -6 420 -6 231 0 420 3 420 6 0 11 -23 49 -34 56 -6
4 -46 8 -88 8 -43 0 -78 4 -78 9 0 5 11 33 25 63 26 56 33 134 15 168 -6 12
-34 26 -66 36 -66 19 -120 68 -130 119 -5 29 -1 41 26 75 29 37 32 46 26 88
-6 47 -21 66 -44 57 -9 -3 -10 0 -3 14 10 18 52 56 130 119 61 49 147 235 156
338 2 18 17 70 35 114 17 45 30 95 29 113 -1 20 16 68 44 127 46 97 137 339
141 375 2 11 12 36 24 55 12 19 22 39 22 44 0 5 17 32 38 60 21 28 42 57 46
64 14 24 -38 12 -109 -24z m-215 -698 c0 -2 -8 -10 -17 -17 -16 -13 -17 -12
-4 4 13 16 21 21 21 13z m-308 -761 c18 -40 -2 -73 -41 -67 -21 3 -31 10 -31
22 0 25 22 40 51 34 19 -5 21 -3 9 5 -8 6 -24 11 -35 11 -17 0 -17 2 -5 10 25
16 40 11 52 -15z"/>
<path d="M6412 13878 c-18 -18 -14 -40 13 -68 13 -14 39 -41 58 -60 19 -19 38
-51 42 -70 12 -60 77 -172 137 -236 32 -34 58 -67 58 -74 0 -7 -27 -41 -60
-77 -68 -73 -121 -170 -141 -258 -9 -42 -22 -68 -41 -87 -15 -14 -28 -31 -28
-36 0 -6 -9 -14 -20 -17 -25 -8 -37 -50 -20 -70 11 -13 62 -15 340 -15 181 0
335 3 344 6 26 10 19 56 -11 86 -61 58 -72 75 -83 131 -17 84 -74 190 -141
262 -32 34 -59 68 -59 75 0 7 25 39 55 72 67 72 109 142 134 224 15 47 32 74
71 113 41 41 51 57 48 79 l-3 27 -340 3 c-257 2 -344 -1 -353 -10z m558 -165
c-1 -57 -75 -183 -154 -265 -62 -64 -62 -93 1 -156 83 -84 137 -182 158 -289
l7 -33 -221 0 c-122 0 -221 4 -221 8 0 4 7 34 15 67 22 85 67 162 135 234 80
84 80 98 -6 191 -65 71 -117 162 -130 228 l-6 32 211 0 c194 0 211 -1 211 -17z"/>
<path d="M6654 13685 c-4 -8 -4 -25 0 -38 9 -37 84 -147 100 -147 22 0 46 30
85 104 47 88 40 96 -86 96 -74 0 -95 -3 -99 -15z"/>
<path d="M8061 11053 c1 -47 3 -52 9 -28 l7 30 7 -27 c13 -47 26 -31 25 30 -1
46 -3 51 -9 27 l-7 -30 -11 28 c-17 41 -22 33 -21 -30z"/>
<path d="M8080 10979 c0 -26 -20 -36 -87 -43 -70 -8 -86 6 -25 22 24 6 29 10
15 11 -12 1 -58 -10 -101 -24 -161 -51 -308 -178 -383 -330 -39 -81 -74 -196
-66 -218 3 -7 8 2 12 18 11 48 14 55 23 55 4 0 4 -31 -1 -69 -8 -58 -13 -70
-31 -76 l-21 -6 21 -10 c16 -8 23 -25 31 -75 9 -60 5 -83 -11 -67 -3 3 -6 19
-6 35 0 15 -5 28 -10 28 -18 0 13 -116 50 -192 69 -138 172 -244 302 -307 81
-40 208 -77 208 -61 0 4 -16 11 -35 14 -19 4 -35 11 -35 17 0 6 15 8 35 4 19
-3 51 -7 71 -11 24 -3 38 -12 43 -27 l8 -22 7 22 c5 16 18 24 42 28 19 3 50 7
69 10 19 3 35 2 35 -3 0 -12 -25 -22 -56 -22 -13 0 -24 -5 -24 -10 0 -19 141
20 224 62 171 86 294 240 341 426 9 35 14 66 11 69 -3 4 -9 -8 -12 -26 -11
-53 -28 -50 -21 4 4 26 7 58 7 71 0 15 8 25 28 32 l27 10 -27 11 c-21 8 -28
17 -28 38 0 16 -3 45 -6 66 -9 52 11 48 23 -5 8 -33 11 -37 12 -17 2 41 -37
157 -77 229 -52 96 -178 217 -272 264 -80 39 -169 66 -210 65 -17 -1 -11 -4
18 -11 53 -12 57 -33 5 -24 -21 3 -50 6 -65 6 -19 0 -32 8 -42 28 -10 17 -15
21 -16 11z m-170 -47 c0 -14 -123 -63 -134 -52 -5 5 -8 10 -5 10 2 0 31 11 64
25 65 27 75 29 75 17z m443 -24 c49 -21 65 -45 22 -34 -18 5 -25 2 -25 -8 0
-8 -3 -23 -6 -33 -5 -17 -5 -17 9 0 10 11 17 14 22 8 3 -6 -5 -22 -19 -36 -27
-27 -35 -58 -13 -49 8 3 33 -13 58 -35 34 -30 41 -42 32 -52 -9 -9 -21 -4 -54
24 -23 20 -46 34 -50 31 -17 -10 -8 -35 24 -64 l32 -31 -24 -17 c-14 -9 -34
-25 -45 -35 l-21 -18 23 6 c28 8 28 6 -3 -35 -14 -19 -25 -41 -25 -49 0 -9 16
7 35 34 75 106 70 101 90 85 62 -51 137 -270 92 -270 -6 0 -59 9 -117 20 -122
23 -113 22 -106 11 3 -4 39 -14 81 -21 41 -7 75 -16 75 -20 0 -4 -33 -13 -72
-20 -40 -7 -82 -16 -93 -21 -19 -7 -19 -8 2 -8 12 -1 69 8 125 19 57 11 106
20 111 20 13 0 7 -57 -12 -121 -18 -57 -85 -170 -100 -169 -3 1 -37 47 -76
104 -38 58 -72 100 -74 94 -1 -5 18 -40 43 -79 25 -38 43 -69 40 -69 -4 0 -33
18 -66 40 -57 38 -85 50 -74 32 3 -5 48 -37 101 -72 l96 -63 -28 -24 c-63 -52
-234 -116 -263 -98 -4 2 1 46 11 97 11 51 18 97 16 103 -4 9 -11 -14 -32 -100
l-8 -30 -9 34 c-15 55 -22 26 -9 -40 7 -33 10 -63 7 -66 -2 -3 -29 0 -60 7
l-55 11 -36 -38 c-20 -21 43 57 140 174 l177 212 44 302 c24 166 43 303 41
305 -2 2 -63 -68 -137 -156 -74 -88 -135 -158 -136 -157 -1 1 6 33 15 71 l17
70 11 -35 11 -34 1 30 c1 17 -3 45 -9 64 -5 19 -7 37 -5 41 2 4 28 3 57 -1 52
-8 53 -8 90 28 20 20 42 49 49 64 6 16 17 29 25 29 31 0 23 22 -15 37 -23 9
-41 20 -41 25 0 11 25 4 93 -24z m-272 -31 c-13 -13 -15 11 -4 40 7 16 8 15
11 -6 2 -13 -1 -28 -7 -34z m-31 18 c0 -14 -4 -25 -10 -25 -11 0 -14 33 -3 43
11 11 13 8 13 -18z m-60 1 c0 -8 3 -22 7 -32 5 -13 3 -16 -10 -11 -9 3 -20 1
-23 -5 -7 -12 -22 13 -23 40 -1 19 17 14 22 -5 4 -14 5 -12 6 5 1 24 21 31 21
8z m30 -12 c0 -14 -4 -23 -10 -19 -5 3 -10 15 -10 26 0 10 5 19 10 19 6 0 10
-12 10 -26z m120 -1 c0 -22 -2 -25 -10 -13 -13 20 -13 40 0 40 6 0 10 -12 10
-27z m30 2 c0 -14 -4 -25 -10 -25 -5 0 -10 11 -10 25 0 14 5 25 10 25 6 0 10
-11 10 -25z m30 -5 c0 -16 -4 -30 -10 -30 -11 0 -14 43 -3 53 11 12 13 8 13
-23z m30 1 c0 -11 -4 -23 -10 -26 -6 -4 -10 5 -10 19 0 14 5 26 10 26 6 0 10
-9 10 -19z m-295 -12 c6 -19 0 -38 -9 -28 -10 12 -16 49 -7 49 5 0 13 -9 16
-21z m325 12 c0 -16 -12 -41 -20 -41 -4 0 -5 11 -2 25 4 23 22 36 22 16z
m-355 -22 c6 -19 0 -38 -9 -28 -10 12 -16 49 -7 49 5 0 13 -9 16 -21z m385 9
c0 -17 -18 -44 -24 -37 -8 7 5 49 15 49 5 0 9 -6 9 -12z m-530 -7 c0 -4 -18
-20 -40 -35 -49 -32 -114 -97 -148 -148 -13 -21 -28 -35 -33 -32 -13 7 40 80
98 135 79 76 123 104 123 80z m114 -7 c11 -28 6 -39 -9 -20 -8 11 -15 23 -15
28 0 14 18 9 24 -8z m595 -15 c52 -37 130 -118 154 -159 31 -52 1 -33 -45 28
-24 32 -71 78 -105 103 -58 41 -75 59 -55 59 5 0 28 -14 51 -31z m-619 0 c7
-11 9 -24 5 -27 -7 -7 -35 25 -35 40 0 16 19 8 30 -13z m-20 -31 c0 -14 -18
-9 -24 8 -11 28 -6 39 9 20 8 -11 15 -23 15 -28z m-32 -3 c14 -29 -2 -34 -18
-6 -12 24 -13 31 -2 31 5 0 14 -11 20 -25z m381 19 c22 -5 31 -12 31 -26 0
-16 -5 -18 -37 -13 -73 12 -83 15 -83 30 0 16 35 20 89 9z m221 -8 c0 -7 -7
-19 -15 -26 -16 -13 -20 -3 -9 24 8 20 24 21 24 2z m-626 -22 c15 -39 -4 -42
-24 -3 -8 15 -7 19 4 19 7 0 17 -7 20 -16z m183 -1 c4 -12 -44 -37 -94 -49
-42 -11 -27 25 20 46 46 21 68 22 74 3z m473 9 c0 -11 -22 -32 -32 -32 -5 0
-4 9 2 20 11 20 30 28 30 12z m-680 -27 c7 -9 10 -18 7 -22 -8 -7 -37 15 -37
28 0 14 16 11 30 -6z m700 7 c0 -11 -22 -32 -32 -32 -5 0 -4 9 2 20 11 20 30
28 30 12z m-715 -50 c-3 -3 -13 2 -23 11 -10 10 -23 14 -27 10 -5 -5 -3 0 5
11 14 17 15 17 32 -4 10 -13 16 -25 13 -28z m730 18 c-10 -11 -22 -20 -27 -20
-4 0 -3 9 4 20 7 11 19 20 27 20 11 0 10 -5 -4 -20z m-405 -99 c-12 -55 -19
-104 -16 -109 3 -4 -22 -41 -55 -81 -32 -40 -59 -78 -59 -84 -1 -7 -20 -144
-44 -305 -42 -282 -42 -292 -22 -273 28 26 50 14 41 -22 -9 -35 -27 -24 -20
11 l6 27 -13 -25 c-23 -45 -70 -23 -48 22 10 21 10 21 -9 -2 -11 -14 -21 -19
-21 -12 0 21 20 53 29 47 5 -2 11 9 13 25 4 24 2 27 -9 19 -14 -12 -23 -7 -75
40 -21 18 -25 28 -17 38 9 10 19 6 52 -22 22 -19 44 -35 49 -35 20 0 5 44 -22
67 -16 13 -30 28 -30 32 0 3 18 17 40 31 22 14 40 28 40 32 0 12 -14 10 -29
-4 -11 -11 -12 -10 -6 2 5 8 17 27 27 42 10 14 18 34 18 45 0 10 -23 -17 -50
-61 l-51 -79 -25 24 c-14 13 -38 50 -54 84 -30 59 -58 170 -47 181 3 3 55 -4
115 -15 60 -12 115 -21 123 -21 32 1 -18 18 -88 30 -40 7 -70 16 -68 20 2 4
37 12 77 19 71 13 121 30 89 31 -8 0 -65 -10 -128 -21 -63 -12 -117 -19 -120
-15 -10 10 16 116 41 170 13 28 37 66 53 85 l29 33 64 -97 c36 -54 68 -103 72
-109 4 -6 10 -8 13 -4 4 4 -12 34 -34 67 -63 92 -61 98 18 46 39 -27 74 -45
78 -42 8 9 16 2 -97 77 -52 35 -97 65 -99 66 -11 10 40 48 103 79 59 29 171
58 185 49 1 -2 -7 -48 -19 -103z m166 -3 c-84 -180 -94 -198 -120 -198 -13 0
-43 -7 -66 -15 -41 -15 -42 -14 -29 4 15 21 253 300 256 301 1 0 -17 -42 -41
-92z m-569 70 c-2 -7 2 -21 11 -30 14 -16 14 -18 0 -18 -26 0 -42 27 -26 44
16 19 21 20 15 4z m828 2 c-3 -5 -12 -10 -18 -10 -7 0 -6 4 3 10 19 12 23 12
15 0z m-790 -10 c3 -5 1 -10 -4 -10 -6 0 -11 5 -11 10 0 6 2 10 4 10 3 0 8 -4
11 -10z m845 -9 c0 -13 -29 -35 -37 -28 -7 8 15 37 28 37 5 0 9 -4 9 -9z
m-885 -41 c3 -6 0 -10 -7 -10 -15 0 -38 19 -38 32 0 10 36 -8 45 -22z m890 0
c-10 -11 -22 -17 -28 -13 -6 4 -1 14 13 25 29 23 39 15 15 -12z m-824 -36
c-16 -18 -34 -41 -40 -51 -7 -13 -13 -15 -21 -7 -14 14 -1 45 38 86 19 21 29
25 39 17 10 -9 7 -18 -16 -45z m-93 24 c19 -19 14 -30 -7 -18 -32 17 -38 11
-11 -10 26 -21 12 -27 -21 -10 -16 9 -17 14 -6 30 14 23 28 25 45 8z m959 -8
c11 -17 10 -21 -8 -31 -28 -14 -38 -3 -13 16 10 8 14 15 9 15 -6 0 -16 -5 -23
-12 -6 -6 -15 -8 -19 -4 -7 7 23 36 37 36 3 0 11 -9 17 -20z m-1057 -19 c0
-12 -42 -114 -52 -125 -15 -18 -8 21 13 78 19 49 39 73 39 47z m1140 -18 c24
-52 38 -101 32 -107 -6 -6 -62 107 -62 125 0 19 17 8 30 -18z m-1074 -7 c10
-8 17 -16 14 -19 -8 -8 -50 11 -50 23 0 14 13 13 36 -4z m1014 4 c0 -5 -9 -14
-19 -20 -25 -13 -38 5 -14 19 23 13 33 14 33 1z m-354 -108 c-9 -55 -16 -103
-17 -108 0 -5 -5 2 -10 15 -7 18 -4 48 13 112 12 48 24 86 26 84 2 -2 -3 -48
-12 -103z m-670 73 c10 -8 14 -15 7 -15 -19 0 -43 11 -43 21 0 13 14 11 36 -6z
m1044 6 c0 -10 -25 -21 -48 -21 -15 1 -14 3 2 15 22 17 46 20 46 6z m-71 -56
c25 -67 25 -65 4 -65 -22 0 -67 106 -49 114 22 9 25 5 45 -49z m-985 29 c9 -3
16 -10 16 -15 0 -14 -24 -11 -46 6 -16 12 -17 14 -2 15 9 0 23 -3 32 -6z
m1052 -9 c-23 -17 -36 -19 -36 -6 0 11 18 19 40 20 11 0 10 -3 -4 -14z m-1052
-37 c-3 -4 -8 -7 -12 -5 -4 2 -15 7 -25 10 -10 4 -16 11 -12 17 4 6 15 5 30
-2 13 -6 22 -15 19 -20z m1072 14 c-8 -13 -46 -22 -46 -11 0 10 42 30 49 23 1
-1 0 -7 -3 -12z m-1080 -40 c-9 -8 -57 8 -51 18 3 6 16 5 30 -2 14 -6 23 -13
21 -16z m1089 8 c-3 -5 -15 -10 -26 -10 -11 0 -17 5 -14 10 3 6 15 10 26 10
11 0 17 -4 14 -10z m-1095 -31 c0 -5 -6 -9 -14 -9 -23 0 -46 11 -41 20 6 10
55 0 55 -11z m1106 -11 c-1 -16 -8 -24 -23 -26 -13 -2 -23 1 -23 7 0 6 8 11
18 12 11 1 8 4 -8 9 l-25 7 25 10 c31 13 38 10 36 -19z m-1051 3 c3 -5 2 -35
-1 -65 -6 -47 -10 -56 -27 -56 -17 0 -19 5 -13 48 4 26 9 55 12 65 6 19 19 22
29 8z m-74 -11 c17 0 9 -20 -8 -21 -17 -1 -17 -2 0 -6 9 -2 17 -9 17 -14 0 -5
-8 -9 -17 -9 -14 0 -15 -2 -5 -9 11 -7 10 -10 -3 -15 -26 -9 -34 1 -26 32 4
15 6 33 3 41 -3 10 0 12 12 8 10 -4 22 -7 27 -7z m576 -22 c-7 -4 -9 -8 -5 -8
3 0 14 -3 24 -7 13 -5 15 -3 9 8 -5 8 1 5 13 -5 12 -11 22 -24 22 -29 0 -6 -7
-2 -15 9 -13 17 -13 16 -3 -13 8 -22 15 -28 20 -20 4 7 7 -3 7 -23 0 -30 -2
-32 -10 -15 -8 17 -9 16 -5 -8 2 -15 1 -25 -2 -22 -7 7 -43 -26 -37 -35 2 -4
-8 -5 -23 -3 -23 3 -24 2 -7 -6 17 -8 15 -10 -15 -10 -27 -1 -32 2 -20 10 12
9 11 10 -7 6 -12 -3 -21 0 -20 5 1 6 -4 13 -12 16 -8 3 -11 0 -7 -7 11 -17 0
-13 -15 6 -10 11 -10 14 -1 9 14 -8 15 -5 6 19 -4 10 -9 12 -13 6 -4 -5 -6 8
-6 29 0 24 3 34 8 27 6 -8 7 -4 4 11 -3 12 -1 20 3 17 8 -5 23 11 26 28 1 4 2
8 3 10 0 1 21 2 45 2 24 0 39 -3 33 -7z m552 -19 c-10 -6 -11 -9 -1 -9 6 0 12
-7 12 -15 0 -17 -6 -18 -35 -5 -14 6 -15 9 -5 10 11 0 10 4 -5 12 -19 12 -19
12 5 18 30 8 48 1 29 -11z m-1139 -59 c0 -5 -12 -10 -27 -9 l-28 1 25 8 c14 4
26 8 28 9 1 1 2 -3 2 -9z m1169 -6 c2 -2 -7 -4 -22 -4 -14 0 -29 5 -32 10 -6
10 42 4 54 -6z m-103 -61 c-12 -100 -47 -100 -39 0 5 49 8 57 26 57 18 0 19
-4 13 -57z m-1061 7 c-3 -5 1 -11 7 -14 10 -5 10 -7 -1 -12 -11 -5 -11 -8 0
-15 12 -8 11 -11 -1 -19 -19 -13 -40 -13 -40 0 0 6 6 10 13 10 6 0 3 6 -8 12
-19 11 -19 11 0 19 17 7 18 8 3 8 -18 1 -23 12 -12 23 8 9 45 -3 39 -12z m395
-140 l-19 -75 5 55 c3 30 10 84 17 120 l12 65 3 -45 c1 -25 -7 -79 -18 -120z
m750 140 c0 -5 -6 -10 -14 -10 -8 0 -18 5 -21 10 -3 6 3 10 14 10 12 0 21 -4
21 -10z m-7 -20 c7 0 8 -3 1 -10 -12 -12 -56 -1 -48 12 3 5 13 7 21 4 8 -3 20
-6 26 -6z m-13 -30 c8 -5 12 -11 9 -14 -7 -8 -49 5 -49 15 0 12 21 11 40 -1z
m-1100 -29 c0 -11 -40 -22 -54 -14 -5 4 -1 10 10 14 27 11 44 11 44 0z m583
-4 c-11 -18 -215 -267 -219 -267 -4 0 40 99 85 189 31 61 44 78 58 75 10 -2
32 0 48 5 17 5 31 10 33 10 2 1 -1 -5 -5 -12z m504 7 c13 -4 21 -10 18 -14 -6
-10 -55 0 -55 11 0 10 7 11 37 3z m-999 -56 c15 -35 19 -55 12 -62 -7 -7 -15
-5 -24 4 -18 20 -47 96 -39 104 16 15 31 2 51 -46z m-78 27 c0 -9 -44 -23 -54
-18 -4 3 -2 9 5 14 15 10 49 12 49 4z m1074 -1 c27 -10 18 -25 -11 -19 -27 5
-27 5 -5 -6 21 -12 30 -29 14 -29 -20 0 -43 27 -36 43 7 18 14 20 38 11z m52
-62 c-22 -61 -39 -92 -49 -92 -5 0 -6 8 -2 18 4 9 16 41 27 69 23 59 44 63 24
5z m-1206 26 c0 -7 11 -37 25 -65 14 -31 20 -55 14 -58 -5 -4 -18 13 -29 37
-26 61 -35 98 -21 98 6 0 11 -6 11 -12z m90 7 c0 -9 -44 -23 -54 -18 -4 3 -2
9 5 14 15 10 49 12 49 4z m-4 -37 c-9 -5 -24 -7 -34 -5 -14 3 -12 6 8 14 29
12 50 5 26 -9z m1060 0 c4 -5 -4 -8 -17 -6 -12 1 -24 8 -26 15 -5 14 34 6 43
-9z m-1055 -29 l-25 -20 30 7 c26 7 28 6 15 -9 -19 -23 -38 -21 -46 4 -7 23 8
39 35 39 10 -1 7 -7 -9 -21z m1035 6 c10 -8 14 -15 7 -15 -19 0 -43 11 -43 21
0 13 14 11 36 -6z m-105 -44 c-11 -14 -30 -36 -44 -49 -41 -39 -42 -7 -2 49
30 40 40 47 51 38 12 -9 11 -15 -5 -38z m99 9 c0 -13 -7 -13 -31 1 -11 5 -17
14 -14 20 7 11 45 -7 45 -21z m-703 -22 c-3 -7 -5 -2 -5 12 0 14 2 19 5 13 2
-7 2 -19 0 -25z m-287 12 c0 -12 -35 -31 -44 -23 -3 3 2 12 12 19 20 16 32 17
32 4z m961 -1 c11 -5 17 -14 14 -20 -7 -11 -45 7 -45 21 0 13 7 13 31 -1z
m-951 -34 c-7 -8 -20 -15 -29 -15 -12 1 -11 5 8 21 26 22 41 18 21 -6z m934 9
c17 -6 22 -24 8 -24 -5 0 -17 7 -28 15 -19 15 -8 20 20 9z m-974 -65 c32 -46
116 -125 158 -148 26 -15 7 -24 -19 -10 -52 27 -189 173 -189 201 0 19 17 4
50 -43z m53 29 c-13 -12 -26 -18 -30 -14 -4 4 1 14 11 22 31 22 43 17 19 -8z
m907 7 c21 -25 1 -31 -22 -7 -18 18 -19 22 -6 22 8 0 21 -7 28 -15z m75 -16
c-33 -62 -193 -204 -211 -186 -2 2 24 26 59 52 34 26 82 74 106 107 46 62 72
78 46 27z m-968 -16 c-9 -9 -20 -14 -24 -10 -3 4 2 14 13 21 10 8 21 12 23 10
3 -2 -3 -12 -12 -21z m873 12 c7 -9 10 -18 7 -22 -8 -7 -37 15 -37 28 0 14 16
11 30 -6z m-796 -54 c3 -4 -3 -16 -13 -25 -17 -15 -19 -15 -32 1 -8 9 -9 14
-3 10 7 -4 17 0 24 8 14 17 17 18 24 6z m751 -14 c5 5 3 0 -4 -10 -11 -13 -17
-15 -27 -6 -8 6 -14 18 -14 27 0 13 2 13 18 -1 10 -10 23 -14 27 -10z m-151
-2 c4 -12 -7 -21 -40 -35 -53 -23 -71 -25 -77 -7 -2 7 15 21 42 34 56 26 67
27 75 8z m-574 -3 c0 -5 -9 -17 -20 -27 -16 -14 -20 -15 -20 -4 0 16 19 39 32
39 4 0 8 -4 8 -8z m678 -4 c14 -14 16 -42 2 -33 -14 9 -32 45 -22 45 4 0 13
-5 20 -12z m-662 -24 c-3 -9 -6 -18 -6 -20 0 -2 -7 -4 -15 -4 -13 0 -13 3 -3
20 15 24 33 27 24 4z m643 -3 c14 -25 1 -35 -15 -13 -16 20 -17 32 -4 32 5 0
14 -8 19 -19z m-619 -22 c-10 -17 -30 -27 -30 -13 0 15 22 44 31 39 5 -4 5
-13 -1 -26z m290 -7 c0 -12 -12 -14 -60 -10 -64 5 -75 10 -67 31 8 20 127 1
127 -21z m310 2 c0 -19 -16 -18 -24 2 -11 27 -7 37 9 24 8 -7 15 -19 15 -26z
m-30 -3 c6 -13 6 -22 1 -26 -9 -5 -31 24 -31 39 0 14 20 4 30 -13z m-20 -33
c0 -14 -18 -9 -24 8 -11 28 -6 39 9 20 8 -11 15 -23 15 -28z m-30 -10 c0 -14
-18 -9 -24 8 -11 28 -6 39 9 20 8 -11 15 -23 15 -28z m-35 11 c6 -19 0 -38 -9
-28 -10 12 -16 49 -7 49 5 0 13 -9 16 -21z m-345 -1 c0 -17 -18 -44 -24 -37
-8 7 5 49 15 49 5 0 9 -6 9 -12z m315 -9 c6 -19 0 -38 -9 -28 -10 12 -16 49
-7 49 5 0 13 -9 16 -21z m-291 -11 c-8 -28 -12 -33 -20 -25 -9 8 6 47 17 47 6
0 7 -10 3 -22z m56 -14 c0 -30 -20 -32 -21 -1 l-2 22 -4 -22 c-5 -25 -23 -32
-23 -9 0 29 11 44 31 39 12 -3 19 -14 19 -29z m180 0 c0 -19 -5 -24 -25 -24
-20 0 -25 5 -25 25 0 31 17 33 23 3 4 -19 4 -18 6 5 1 34 21 26 21 -9z m30 5
c0 -10 -4 -19 -10 -19 -5 0 -10 12 -10 26 0 14 4 23 10 19 6 -3 10 -15 10 -26z
m-320 -51 c0 -14 -23 -9 -77 17 -75 34 -66 48 12 17 36 -14 65 -29 65 -34z
m140 37 c0 -14 -4 -25 -10 -25 -5 0 -10 11 -10 25 0 14 5 25 10 25 6 0 10 -11
10 -25z m90 0 c0 -14 -4 -25 -10 -25 -11 0 -14 33 -3 43 11 11 13 8 13 -18z
m255 6 c-7 -13 -125 -54 -132 -47 -8 8 -8 8 62 38 57 24 82 27 70 9z m-305
-11 c0 -11 -4 -20 -10 -20 -5 0 -10 9 -10 20 0 11 5 20 10 20 6 0 10 -9 10
-20z"/>
<path d="M8090 10369 c22 -7 21 -8 -10 -6 -33 2 -35 1 -32 -28 2 -16 9 -37 15
-45 11 -13 10 -13 -5 -1 -10 7 -19 23 -19 35 -1 18 -2 18 -6 3 -10 -39 64 -73
94 -44 11 12 10 66 -1 59 -5 -3 -7 2 -3 11 6 16 -12 28 -41 26 -11 -1 -8 -4 8
-10z m10 -44 c0 -8 -7 -15 -15 -15 -16 0 -20 12 -8 23 11 12 23 8 23 -8z"/>
<path d="M7290 10352 c0 -6 10 -13 23 -15 l22 -4 -22 -2 c-25 -1 -32 -21 -8
-21 8 0 15 -4 15 -10 0 -5 -7 -10 -15 -10 -8 0 -15 -4 -15 -9 0 -5 8 -8 18 -6
9 2 34 7 55 10 40 6 51 25 15 26 l-23 0 23 9 c29 12 28 30 -2 30 -13 0 -38 3
-55 6 -19 4 -31 2 -31 -4z"/>
<path d="M8781 10313 c1 -17 3 -21 6 -10 5 20 29 23 37 5 5 -10 7 -10 12 0 8
17 34 15 34 -3 0 -8 5 -15 10 -15 6 0 10 11 10 25 0 24 -3 25 -55 25 -54 0
-55 -1 -54 -27z"/>
<path d="M8070 9606 c0 -13 7 -29 15 -36 16 -14 20 -40 6 -40 -5 0 -12 6 -14
13 -3 7 -6 5 -6 -5 -1 -13 7 -18 24 -18 32 0 33 25 3 57 -12 13 -18 26 -13 30
4 5 10 2 12 -4 7 -20 23 -15 23 7 0 15 -7 20 -25 20 -20 0 -25 -5 -25 -24z"/>
<path d="M11636 17532 c4 -22 -10 -58 -66 -165 -40 -77 -83 -145 -97 -155
l-26 -19 66 -35 67 -36 0 30 c0 43 137 306 168 322 24 13 23 14 -41 49 -36 21
-68 37 -71 37 -3 0 -3 -13 0 -28z"/>
<path d="M5990 17475 c-14 -8 -47 -24 -74 -37 -119 -56 -159 -188 -92 -303 15
-25 46 -58 68 -73 35 -23 52 -27 107 -27 43 1 77 7 98 18 47 25 102 75 119
109 13 26 13 32 1 46 -21 26 -69 112 -76 138 -6 23 -6 23 -86 -23 -44 -25 -81
-47 -83 -48 -7 -6 19 -85 28 -85 6 0 10 4 10 9 0 13 68 54 79 47 4 -3 14 -20
22 -37 12 -30 11 -33 -17 -55 -64 -52 -146 -37 -187 34 -54 93 16 196 135 196
26 0 48 2 48 4 0 4 -73 103 -75 101 0 0 -11 -7 -25 -14z"/>
<path d="M11907 17386 c4 -21 -13 -38 -122 -127 -69 -57 -142 -111 -162 -120
l-35 -16 60 -37 c69 -42 72 -42 72 -18 0 11 9 27 20 37 19 17 21 16 77 -17 66
-38 81 -74 43 -101 -20 -14 -18 -16 40 -51 34 -20 64 -36 67 -36 3 0 2 11 -1
24 -3 13 10 109 29 212 19 104 35 194 35 199 0 9 -108 75 -122 75 -3 0 -3 -11
-1 -24z m10 -178 c-5 -29 -13 -57 -17 -61 -9 -10 -73 20 -68 32 3 8 87 81 93
81 1 0 -2 -24 -8 -52z"/>
<path d="M12168 17174 c-54 -29 -75 -114 -41 -164 9 -14 32 -42 50 -63 42 -47
42 -80 0 -85 -23 -3 -37 5 -67 37 -21 22 -43 56 -50 75 -6 20 -15 36 -18 36
-8 0 -52 -100 -52 -117 0 -7 5 -13 11 -13 6 0 23 -13 38 -29 52 -55 100 -81
152 -81 42 0 53 5 83 34 62 63 55 127 -24 212 -51 56 -51 94 0 94 20 0 75 -58
93 -99 l20 -45 28 55 c33 63 34 69 15 69 -8 0 -22 10 -30 22 -9 12 -34 35 -57
50 -48 32 -107 37 -151 12z"/>
<path d="M5218 16976 c-56 -42 -63 -56 -27 -56 14 0 25 -22 48 -97 50 -164 70
-237 73 -266 l3 -28 58 43 c49 36 55 43 40 52 -49 26 -43 58 22 107 53 40 56
41 80 25 14 -9 25 -26 25 -37 0 -17 7 -14 55 22 30 23 55 45 55 49 0 4 -11 11
-25 14 -14 4 -82 44 -152 89 -71 46 -144 92 -163 104 l-35 22 -57 -43z m173
-137 l24 -19 -30 -25 c-16 -14 -32 -25 -35 -25 -3 0 -11 19 -17 43 -7 23 -15
51 -19 61 -7 19 -6 19 22 1 17 -9 41 -26 55 -36z"/>
<path d="M5667 16912 c-36 -40 -3 -101 48 -88 24 6 25 5 25 -45 0 -59 20 -64
34 -7 25 99 -53 200 -107 140z"/>
<path d="M12590 16887 c-42 -15 -80 -68 -80 -112 0 -21 15 -55 45 -101 50 -76
53 -89 27 -103 -40 -21 -114 53 -128 127 -3 17 -10 32 -14 32 -4 0 -21 -25
-37 -56 l-30 -55 51 -53 c68 -70 97 -88 149 -88 74 -2 127 51 127 126 0 25
-13 54 -46 101 -48 70 -52 98 -18 103 31 4 80 -42 100 -93 9 -25 20 -42 24
-40 5 3 20 25 34 49 l26 45 -51 48 c-46 44 -110 83 -134 82 -5 0 -26 -5 -45
-12z"/>
<path d="M4981 16788 c-55 -44 -62 -58 -32 -58 11 0 56 -45 118 -117 110 -130
126 -154 117 -177 -10 -26 5 -19 62 30 57 49 65 64 36 64 -21 0 -46 26 -161
164 -58 68 -81 104 -78 117 7 28 -5 24 -62 -23z"/>
<path d="M4802 16618 c-22 -13 -74 -55 -115 -94 l-74 -71 29 -9 c40 -13 248
-240 248 -271 0 -23 4 -21 55 24 59 51 65 63 37 63 -10 0 -37 19 -60 43 -41
42 -42 44 -24 60 17 16 23 15 101 -9 l82 -25 45 36 c52 43 55 55 14 55 -17 0
-59 7 -94 16 l-63 16 4 42 c6 53 -16 99 -60 126 -42 26 -75 25 -125 -2z m80
-85 c27 -25 22 -55 -17 -93 l-35 -34 -35 34 c-19 19 -35 37 -35 41 0 9 81 69
94 69 5 0 18 -7 28 -17z"/>
<path d="M12815 16614 c-94 -51 -138 -147 -114 -246 25 -106 141 -181 249
-163 51 9 118 58 148 110 19 34 22 52 20 111 -4 81 -30 130 -94 174 -48 32
-162 40 -209 14z m155 -89 c93 -48 68 -195 -38 -225 -106 -29 -187 105 -115
190 42 51 98 63 153 35z"/>
<path d="M4495 16316 c-40 -17 -95 -72 -111 -113 -21 -48 -18 -137 6 -182 44
-87 140 -133 234 -112 197 44 233 310 54 402 -44 22 -137 25 -183 5z m172
-120 c27 -30 33 -44 33 -82 0 -39 -5 -51 -34 -80 -29 -29 -41 -34 -81 -34 -42
0 -52 5 -86 39 -31 30 -39 46 -39 74 0 83 51 132 130 124 35 -4 51 -13 77 -41z"/>
<path d="M13188 16290 c-51 -15 -100 -53 -129 -99 -24 -36 -29 -56 -29 -104 0
-76 18 -113 87 -176 l56 -52 54 33 c29 18 53 35 53 39 0 3 -16 9 -35 12 -67
11 -125 72 -125 132 0 39 27 83 63 105 88 54 184 -8 199 -130 3 -23 6 -21 45
29 l41 55 -21 29 c-84 114 -167 155 -259 127z"/>
<path d="M13510 16050 c0 -13 -43 -55 -126 -125 -126 -105 -132 -109 -169
-105 -21 2 -24 6 45 -77 39 -49 47 -52 52 -21 2 14 44 57 113 115 116 99 159
128 175 118 24 -15 7 21 -31 66 -44 53 -59 60 -59 29z"/>
<path d="M4167 15957 c-121 -147 -116 -136 -77 -186 l34 -42 13 44 c7 24 21
51 31 60 17 15 24 11 129 -73 68 -55 114 -99 120 -116 l9 -27 47 59 c49 62 57
80 31 70 -22 -8 -44 6 -161 100 l-102 82 24 26 c13 14 36 31 50 36 35 13 32
23 -20 48 l-44 21 -84 -102z"/>
<path d="M13704 15813 c-10 -26 -23 -31 -180 -75 -93 -26 -179 -49 -191 -50
-21 -3 -20 -6 19 -57 36 -47 43 -52 53 -38 6 9 23 20 36 25 21 8 28 3 67 -50
43 -57 44 -59 28 -83 -9 -14 -26 -25 -37 -25 -17 0 -14 -7 22 -55 23 -30 45
-55 49 -55 4 0 10 10 14 23 3 13 53 96 111 186 l106 163 -25 37 c-15 20 -34
46 -44 59 l-17 22 -11 -27z m-34 -128 c0 -9 -64 -95 -71 -95 -9 0 -53 60 -48
64 5 3 102 34 112 35 4 1 7 -1 7 -4z"/>
<path d="M3964 15691 c-87 -98 -97 -160 -35 -222 32 -32 46 -39 78 -39 40 0
61 11 127 67 22 18 48 33 57 33 24 0 39 -29 29 -56 -11 -29 -73 -80 -114 -94
-20 -6 -36 -15 -36 -18 0 -4 27 -19 60 -34 l60 -26 11 21 c7 11 25 31 41 45
61 52 88 159 52 210 -22 31 -66 52 -113 52 -33 0 -51 -9 -102 -50 -68 -54 -83
-59 -98 -32 -19 36 38 102 102 117 15 4 27 10 27 14 0 4 -24 18 -52 33 l-53
25 -41 -46z"/>
<path d="M13910 15540 c0 -14 -30 -40 -102 -88 -156 -104 -194 -125 -219 -117
-25 8 -31 20 67 -132 l73 -112 47 19 c27 10 50 22 51 26 2 5 -10 15 -26 22
-26 12 -100 107 -90 116 29 27 242 155 262 158 l26 3 -40 63 c-22 34 -42 62
-44 62 -3 0 -5 -9 -5 -20z"/>
<path d="M3778 15419 c-19 -30 -38 -60 -42 -67 -6 -10 -2 -11 16 -7 18 5 54
-13 153 -75 150 -94 163 -105 167 -133 2 -17 12 -7 46 44 23 36 42 68 42 71 0
3 -10 3 -23 1 -29 -6 -285 154 -309 192 l-16 27 -34 -53z"/>
<path d="M3661 15235 c-36 -63 -38 -75 -12 -68 10 2 36 -5 57 -16 70 -37 69
-33 34 -95 -18 -31 -36 -58 -40 -61 -15 -9 -100 49 -108 75 -8 23 -10 21 -45
-38 -42 -72 -45 -86 -17 -77 31 10 308 -149 321 -183 l10 -26 19 32 c10 17 28
49 40 72 l21 41 -25 -7 c-18 -4 -41 3 -81 26 -31 18 -55 35 -53 39 19 40 59
111 66 115 13 8 114 -56 120 -76 7 -29 21 -18 58 48 l34 60 -33 0 c-39 0 -304
149 -313 176 -9 29 -20 21 -53 -37z"/>
<path d="M14088 15236 c-27 -37 -285 -179 -314 -173 -20 3 -24 1 -19 -12 6
-15 133 -241 141 -250 3 -4 91 18 107 26 4 3 -7 14 -25 26 -26 18 -98 118 -98
138 0 7 80 52 84 48 11 -12 40 -78 45 -100 l6 -27 54 31 c53 30 53 30 30 43
-33 17 -74 90 -57 100 7 4 23 14 34 21 21 13 24 11 53 -40 19 -33 31 -68 31
-91 0 -20 3 -36 8 -36 4 1 24 16 46 35 l39 35 -63 112 c-78 140 -80 143 -102
114z"/>
<path d="M14154 14856 c-28 -28 -34 -41 -34 -77 0 -24 5 -61 11 -83 15 -53 5
-86 -25 -86 -41 0 -61 44 -61 132 0 48 -4 74 -10 70 -5 -3 -28 -19 -50 -36
-22 -16 -42 -31 -44 -33 -2 -2 1 -13 7 -26 6 -12 16 -40 22 -63 32 -130 147
-181 233 -104 35 31 34 25 24 205 -2 37 0 40 23 40 38 0 63 -55 56 -123 -5
-58 -8 -57 61 -10 41 27 41 29 27 56 -7 15 -14 33 -14 40 0 26 -40 91 -69 111
-19 14 -44 21 -76 21 -40 0 -52 -5 -81 -34z"/>
<path d="M4730 7721 c0 -24 -19 -51 -91 -133 -51 -57 -98 -119 -106 -138 -32
-75 8 -177 89 -224 108 -62 162 -44 290 98 94 103 130 132 150 120 6 -4 9 -2
7 3 -5 12 -114 113 -123 113 -3 0 -6 -8 -6 -18 0 -25 -41 -80 -126 -169 -59
-62 -74 -73 -102 -73 -45 0 -82 38 -82 84 0 29 13 49 91 135 52 58 101 104
115 107 l25 7 -28 29 c-15 17 -45 43 -65 60 l-38 30 0 -31z"/>
<path d="M12631 7564 c-27 -22 -31 -31 -26 -60 3 -19 7 -50 10 -69 l6 -35 29
22 c28 21 30 25 30 95 0 40 -4 73 -9 73 -5 0 -23 -12 -40 -26z"/>
<path d="M5077 7401 c-6 -50 -196 -306 -239 -324 l-30 -12 65 -48 c36 -26 67
-47 70 -47 2 0 2 10 0 23 -3 17 15 49 67 120 39 53 74 97 77 97 3 0 4 -79 2
-176 l-4 -176 32 -25 31 -24 108 143 c128 171 152 198 177 198 29 0 18 15 -48
64 l-60 45 -6 -33 c-5 -29 -121 -196 -136 -196 -3 0 -3 74 1 164 l6 164 -42
35 c-64 51 -65 51 -71 8z"/>
<path d="M12639 7383 l-57 -47 31 -15 c29 -15 36 -29 89 -191 31 -96 57 -190
57 -207 1 -18 4 -33 7 -33 3 0 33 21 65 47 l60 47 -24 13 c-25 13 -45 60 -30
73 115 95 114 95 142 79 14 -8 27 -25 29 -37 2 -12 6 -22 9 -22 9 0 123 93
123 100 0 4 -13 10 -29 13 -16 3 -111 56 -212 117 -100 60 -187 110 -193 109
-6 0 -36 -21 -67 -46z m178 -129 l57 -37 -32 -28 c-18 -16 -36 -29 -41 -29 -5
0 -17 24 -27 53 -9 28 -19 58 -22 65 -7 19 3 15 65 -24z"/>
<path d="M12430 7215 c-7 -8 -18 -15 -24 -15 -28 0 -108 -63 -135 -105 -57
-90 -47 -199 26 -284 48 -57 101 -81 178 -80 71 0 120 23 190 87 l46 44 -28
64 c-15 35 -31 64 -34 64 -4 0 -13 -17 -19 -37 -24 -76 -106 -132 -171 -119
-64 12 -119 79 -119 143 0 77 80 143 174 143 l50 0 -54 55 c-30 30 -57 55 -61
55 -4 0 -12 -7 -19 -15z"/>
<path d="M5485 7117 c5 -18 -15 -55 -85 -163 -105 -158 -126 -184 -152 -184
-10 0 -18 -4 -18 -9 0 -11 140 -104 141 -94 1 5 0 18 -1 30 -1 13 39 82 99
172 92 137 122 171 149 171 21 0 17 -74 -14 -264 -19 -111 -34 -210 -34 -221
0 -12 12 -27 28 -36 l28 -16 176 139 c105 82 189 141 207 144 29 6 31 5 31
-22 -1 -43 -160 -347 -187 -359 -13 -5 -23 -12 -23 -15 0 -3 69 -39 153 -81
l152 -76 38 47 c20 27 37 50 37 53 0 2 -18 4 -39 3 -26 0 -63 11 -110 33 l-70
34 25 49 c13 26 26 48 28 48 15 0 99 -56 107 -72 10 -19 14 -15 45 38 40 71
41 76 10 68 -15 -3 -42 4 -75 20 l-51 26 20 41 21 40 67 -36 c42 -22 75 -47
86 -66 10 -17 20 -28 23 -26 6 7 35 118 31 122 -2 1 -71 36 -153 78 -83 41
-177 91 -210 111 -70 42 -75 43 -75 16 0 -13 -34 -48 -97 -100 -53 -44 -98
-78 -100 -76 -2 2 6 56 18 121 15 82 27 122 41 135 19 17 18 18 -19 40 -21 13
-84 54 -140 92 -56 37 -105 68 -108 68 -3 0 -3 -10 0 -23z"/>
<path d="M11943 6904 c-74 -41 -81 -50 -49 -58 14 -3 27 -14 30 -24 17 -56 67
-381 62 -404 -3 -16 -4 -28 -1 -28 3 0 121 68 134 77 2 1 -5 10 -17 20 -11 10
-22 29 -25 43 -5 22 1 29 65 67 79 46 104 44 115 -9 3 -16 8 -28 11 -28 11 0
132 71 132 78 0 4 -12 12 -27 18 -16 6 -103 72 -195 147 -92 75 -169 137 -170
137 -2 0 -31 -16 -65 -36z m155 -163 c23 -19 42 -38 42 -41 0 -4 -17 -15 -37
-25 -21 -11 -41 -21 -44 -23 -4 -1 -9 14 -12 35 -4 21 -10 53 -13 72 -8 39 -4
38 64 -18z"/>
<path d="M11696 6759 c-40 -10 -236 -109 -236 -120 0 -4 8 -9 19 -12 28 -7
185 -311 185 -359 0 -21 2 -38 3 -38 2 0 36 17 78 37 75 37 92 53 57 53 -23 0
-43 22 -70 76 l-21 41 50 24 c28 12 66 40 85 61 29 33 34 45 34 89 0 107 -81
171 -184 148z m58 -104 c40 -40 27 -84 -34 -115 -22 -11 -42 -20 -44 -20 -6 0
-56 95 -56 104 0 10 75 45 97 46 12 0 28 -7 37 -15z"/>
<path d="M6384 6587 c-1 -64 -128 -353 -163 -371 l-26 -14 25 -10 c14 -6 47
-20 73 -31 61 -27 69 -26 62 2 -7 28 31 137 48 137 32 -1 43 -23 57 -116 l16
-97 63 -29 c63 -28 63 -28 56 -6 -12 38 -46 191 -43 193 2 1 24 9 50 19 57 21
89 61 95 120 10 81 -35 130 -167 184 -41 17 -91 37 -110 45 l-35 15 -1 -41z
m156 -120 c38 -19 45 -27 48 -55 6 -62 -30 -77 -110 -45 -24 9 -44 17 -46 18
-7 5 42 105 52 104 6 0 31 -10 56 -22z"/>
<path d="M11203 6537 c-40 -17 -73 -33 -73 -37 0 -3 10 -10 23 -15 20 -9 23
-20 30 -115 4 -58 7 -159 5 -226 l-3 -121 72 31 c72 29 72 30 53 48 -11 10
-20 31 -20 46 0 25 7 31 78 60 l77 32 18 -23 c9 -12 16 -32 14 -44 -5 -28 -1
-28 60 -2 26 11 59 25 72 30 l25 10 -30 18 c-16 10 -85 78 -153 152 -69 74
-136 146 -150 160 l-26 27 -72 -31z m167 -223 c0 -7 -12 -17 -27 -22 -16 -5
-36 -13 -45 -17 -14 -6 -17 3 -20 69 l-3 75 48 -46 c26 -26 47 -53 47 -59z"/>
<path d="M6796 6399 c-36 -28 -56 -70 -56 -118 0 -49 30 -87 109 -139 58 -39
71 -62 51 -87 -17 -20 -54 -19 -99 4 -38 20 -101 83 -101 101 0 6 -4 10 -9 10
-5 0 -12 -21 -15 -47 -4 -27 -10 -63 -13 -80 -4 -29 -2 -33 16 -33 11 0 47
-14 78 -30 76 -39 137 -47 183 -23 80 42 107 147 53 211 -16 18 -50 47 -77 65
-27 17 -54 39 -59 48 -16 26 -1 49 33 49 43 0 82 -23 123 -71 l34 -42 13 67
c7 37 11 68 9 69 -2 2 -33 17 -68 35 -80 40 -162 45 -205 11z"/>
<path d="M10855 6404 c-36 -9 -210 -66 -228 -76 -16 -8 -15 -11 7 -31 17 -15
41 -73 81 -194 47 -143 54 -175 45 -193 -6 -12 -10 -24 -8 -26 6 -6 158 47
158 54 0 4 -8 12 -19 19 -10 6 -28 39 -39 72 l-20 60 29 6 c26 6 38 -1 98 -54
38 -34 74 -61 81 -61 22 0 120 33 120 40 0 4 -12 12 -26 19 -24 11 -144 100
-144 107 0 2 10 19 22 39 53 91 0 205 -102 219 -19 2 -44 2 -55 0z m57 -111
c23 -20 23 -55 1 -75 -10 -8 -39 -22 -64 -31 l-47 -15 -13 46 c-19 63 -19 63
21 78 49 18 80 17 102 -3z"/>
<path d="M7157 6307 c5 -33 -9 -91 -73 -304 -18 -59 -30 -84 -44 -88 -35 -11
-22 -22 53 -44 84 -25 107 -27 89 -9 -20 20 -14 56 37 228 36 119 56 170 72
183 12 9 20 19 18 21 -2 1 -33 11 -68 20 -36 10 -71 20 -77 23 -10 3 -12 -5
-7 -30z"/>
<path d="M7348 6268 c19 -19 14 -65 -24 -229 -35 -152 -53 -199 -76 -199 -35
0 19 -20 106 -40 176 -40 268 -17 333 82 25 37 28 50 28 127 0 79 -3 90 -29
129 -40 59 -92 86 -223 116 -128 30 -131 30 -115 14z m217 -144 c13 -9 32 -36
41 -60 14 -38 15 -51 5 -87 -23 -78 -78 -114 -156 -103 -24 4 -47 11 -50 16
-3 5 6 57 20 117 14 59 27 118 30 129 4 20 8 21 46 13 22 -5 51 -16 64 -25z"/>
<path d="M10328 6253 c-32 -8 -58 -19 -58 -24 0 -5 4 -9 10 -9 5 0 14 -9 20
-20 13 -25 -24 -366 -45 -417 -8 -18 -11 -33 -8 -33 7 0 123 29 142 36 11 4
10 8 -3 23 -10 11 -16 31 -14 47 3 26 8 29 82 48 l79 19 19 -23 c12 -15 17
-32 13 -47 -6 -27 -9 -27 69 -8 93 24 92 23 62 46 -14 11 -81 101 -148 200
-134 197 -122 188 -220 162z m152 -244 c0 -5 -76 -29 -92 -29 -4 0 1 73 8 119
l5 34 40 -59 c21 -32 39 -62 39 -65z"/>
<path d="M10035 6189 c-55 -11 -123 -24 -152 -30 l-52 -10 -7 -55 c-3 -30 -4
-57 -1 -61 3 -3 18 4 34 15 15 11 45 24 65 30 l37 10 11 -51 c43 -214 50 -270
36 -299 -18 -36 -16 -36 142 -2 l24 5 -26 24 c-14 13 -26 28 -26 33 0 5 -11
69 -25 143 -14 74 -25 141 -25 150 0 23 55 30 103 14 45 -15 46 -9 17 59 -24
52 -16 51 -155 25z"/>
<path d="M7886 6151 c3 -9 8 -23 10 -31 6 -19 -180 -350 -209 -372 -12 -10
-20 -18 -17 -18 3 -1 39 -7 82 -14 l76 -12 -5 30 c-2 18 1 39 9 49 13 17 20
18 95 6 79 -12 81 -13 87 -42 4 -20 1 -36 -9 -47 -15 -16 -14 -18 7 -23 13 -4
50 -9 81 -13 56 -7 69 0 46 23 -6 6 -30 109 -55 229 -24 120 -47 220 -49 223
-3 2 -39 10 -81 16 -68 11 -74 11 -68 -4z m87 -186 c4 -25 10 -57 13 -71 7
-26 6 -26 -42 -19 -27 4 -51 9 -52 10 -5 5 62 125 69 125 4 0 9 -20 12 -45z"/>
<path d="M9430 6104 c-69 -7 -129 -13 -134 -13 -5 -1 -1 -10 8 -20 14 -15 22
-61 36 -203 16 -160 16 -186 4 -210 -14 -27 -13 -28 8 -28 51 1 310 29 316 34
7 8 21 109 15 118 -2 4 -19 -4 -38 -16 -24 -17 -56 -26 -105 -31 -39 -4 -73
-5 -76 -2 -2 2 -7 27 -11 54 l-5 50 52 6 c29 4 61 2 71 -3 30 -17 34 -12 31
42 -4 76 -7 81 -34 66 -13 -6 -47 -15 -75 -18 -45 -5 -53 -4 -53 11 0 9 -3 30
-6 46 l-6 30 69 6 c45 3 81 1 108 -8 21 -8 41 -12 43 -10 2 2 -4 28 -14 59
-20 65 -2 61 -204 40z"/>
<path d="M8239 6096 c16 -19 16 -72 1 -261 -9 -100 -15 -136 -30 -157 l-19
-26 94 -7 c142 -11 206 -4 254 28 66 44 95 97 99 183 4 64 1 78 -23 123 -29
53 -80 95 -134 111 -18 5 -83 12 -144 16 -104 7 -111 6 -98 -10z m208 -97 c96
-36 119 -161 43 -234 -25 -24 -41 -29 -91 -33 l-62 -5 7 114 c10 162 12 169
46 169 16 0 41 -5 57 -11z"/>
<path d="M8830 6074 c0 -4 8 -13 18 -20 15 -11 17 -35 20 -207 3 -165 1 -197
-12 -210 -9 -9 -16 -18 -16 -21 0 -6 204 2 256 10 56 8 121 60 150 120 22 46
26 64 22 118 -5 88 -44 150 -117 188 -51 27 -60 28 -187 28 -74 0 -134 -3
-134 -6z m271 -107 c114 -77 61 -257 -76 -257 l-42 0 -7 92 c-3 50 -6 113 -6
140 l0 48 49 0 c34 0 58 -7 82 -23z"/>
<path d="M7798 4428 l-57 -93 47 -3 46 -3 83 88 c45 48 82 91 83 96 0 4 -33 7
-73 7 l-73 0 -56 -92z"/>
<path d="M5623 4290 c-77 -16 -141 -50 -193 -106 -77 -82 -95 -128 -95 -249 0
-90 3 -106 29 -160 61 -123 167 -192 312 -202 131 -10 240 40 309 141 34 51
65 144 65 198 l0 28 -175 0 -175 0 0 -65 0 -65 96 0 96 0 -20 -32 c-43 -68
-145 -95 -247 -67 -62 17 -139 100 -155 168 -25 106 28 218 124 262 85 39 206
20 282 -44 l31 -26 47 48 47 48 -41 36 c-54 46 -111 72 -185 86 -66 12 -92 12
-152 1z"/>
<path d="M6400 4285 c-330 -93 -365 -544 -53 -688 68 -31 217 -32 285 0 144
66 228 209 215 365 -19 223 -237 381 -447 323z m189 -145 c84 -42 125 -120
119 -226 -4 -92 -37 -145 -117 -186 -71 -37 -131 -37 -202 0 -79 41 -112 94
-117 183 -7 110 33 185 123 232 44 23 146 22 194 -3z"/>
<path d="M7230 4289 c-70 -14 -144 -55 -194 -109 -64 -69 -89 -127 -94 -225
-5 -95 17 -168 72 -244 136 -185 451 -187 577 -4 36 52 69 147 69 199 l0 34
-175 0 -175 0 0 -65 0 -65 95 0 c52 0 95 -3 95 -6 0 -19 -46 -65 -83 -83 -81
-39 -186 -25 -255 35 -110 93 -116 250 -15 346 84 81 240 78 339 -5 l31 -26
47 48 47 48 -41 36 c-54 46 -111 72 -185 86 -67 12 -91 12 -155 0z"/>
<path d="M11516 4286 c-73 -27 -126 -98 -126 -168 0 -54 38 -115 113 -181 136
-118 157 -142 157 -175 0 -38 -31 -62 -79 -62 -28 0 -42 8 -75 44 l-41 43 -45
-28 c-25 -16 -49 -30 -54 -32 -15 -5 21 -62 63 -100 99 -90 273 -72 335 35 43
71 38 162 -10 225 -14 19 -68 70 -120 114 -106 91 -120 109 -104 139 23 42 75
35 132 -17 l27 -25 46 44 47 44 -38 37 c-68 66 -155 90 -228 63z"/>
<path d="M12565 4286 c-109 -28 -199 -100 -242 -193 -95 -206 7 -445 217 -507
236 -70 462 98 462 344 0 104 -29 178 -99 251 -91 95 -221 136 -338 105z m203
-158 c78 -52 119 -168 93 -264 -6 -22 -27 -60 -48 -83 -61 -72 -142 -96 -236
-70 -53 14 -132 93 -146 144 -32 117 14 235 111 284 63 32 168 27 226 -11z"/>
<path d="M2940 3936 l0 -346 70 0 70 0 0 144 0 143 69 5 c131 10 201 78 201
195 0 81 -31 139 -90 172 -39 22 -59 25 -182 29 l-138 5 0 -347z m237 203 c34
-13 43 -25 43 -66 0 -42 -30 -63 -92 -63 l-48 0 0 70 0 70 34 0 c19 0 47 -5
63 -11z"/>
<path d="M3480 3935 l0 -345 190 0 190 0 0 65 0 65 -125 0 -125 0 0 90 0 90
125 0 126 0 -3 63 -3 62 -122 3 -123 3 0 59 0 60 125 0 125 0 0 65 0 65 -190
0 -190 0 0 -345z"/>
<path d="M3980 3935 l0 -345 148 0 c186 0 232 12 300 78 69 67 96 139 96 257
0 109 -25 180 -86 249 -72 82 -149 106 -345 106 l-113 0 0 -345z m260 204 c64
-14 123 -66 139 -124 19 -70 14 -146 -15 -202 -34 -69 -81 -93 -182 -93 l-72
0 0 215 0 215 40 0 c21 0 62 -5 90 -11z"/>
<path d="M4851 4258 c-5 -13 -62 -160 -126 -328 -65 -168 -120 -313 -123 -322
-4 -16 4 -18 64 -18 l69 0 26 68 26 67 140 3 141 3 25 -68 25 -68 71 -3 71 -3
-18 48 c-10 26 -70 182 -133 346 l-114 297 -68 0 c-61 0 -68 -2 -76 -22z m127
-295 l40 -103 -90 0 c-49 0 -88 4 -86 8 2 5 21 54 42 110 22 56 43 99 47 95 4
-5 25 -54 47 -110z"/>
<path d="M7767 4273 c-4 -3 -7 -159 -7 -345 l0 -338 70 0 70 0 0 345 0 345
-63 0 c-35 0 -67 -3 -70 -7z"/>
<path d="M8126 3948 c-71 -183 -131 -339 -133 -345 -4 -10 13 -13 65 -13 l70
0 28 70 27 71 140 -3 140 -3 25 -67 25 -68 68 0 c38 0 69 2 69 5 0 5 -208 549
-247 647 l-15 38 -67 0 -67 0 -128 -332z m238 37 c19 -50 37 -98 41 -107 6
-16 -1 -18 -83 -18 l-90 0 34 88 c49 123 54 135 59 130 2 -2 20 -44 39 -93z"/>
<path d="M9020 3935 l0 -345 190 0 190 0 0 65 0 65 -120 0 -120 0 0 90 0 90
120 0 120 0 0 65 0 65 -120 0 -120 0 0 60 0 60 120 0 120 0 0 65 0 65 -190 0
-190 0 0 -345z"/>
<path d="M9520 3935 l0 -345 70 0 70 0 2 215 3 214 139 -214 140 -215 68 0 68
0 -2 343 -3 342 -67 3 -68 3 -2 -221 -3 -221 -143 221 -144 220 -64 0 -64 0 0
-345z"/>
<path d="M10500 3935 l0 -345 65 0 65 0 0 150 0 150 115 0 115 0 0 -150 0
-150 70 0 70 0 -2 343 -3 342 -67 3 -68 3 0 -131 0 -130 -115 0 -115 0 0 130
0 130 -65 0 -65 0 0 -345z"/>
<path d="M11140 3935 l0 -345 65 0 65 0 0 345 0 345 -65 0 -65 0 0 -345z"/>
<path d="M11850 4215 l0 -65 60 0 60 0 0 -280 0 -280 70 0 70 0 0 280 0 280
60 0 60 0 0 65 0 65 -190 0 -190 0 0 -65z"/>
<path d="M13137 4273 c-4 -3 -7 -159 -7 -345 l0 -338 70 0 69 0 3 147 3 147
74 -140 c40 -76 76 -143 81 -147 4 -4 38 -7 77 -5 l69 3 -78 145 c-42 80 -78
148 -78 151 0 4 14 12 30 19 43 18 76 61 90 119 27 112 -34 217 -139 240 -56
12 -253 15 -264 4z m238 -137 c32 -14 35 -19 35 -54 0 -50 -17 -64 -86 -70
l-54 -4 0 71 0 71 35 0 c20 0 51 -7 70 -14z"/>
<path d="M13670 3935 l0 -345 70 0 70 0 -2 343 -3 342 -67 3 -68 3 0 -346z"/>
<path d="M14149 4253 c-5 -16 -64 -168 -129 -339 -66 -171 -120 -314 -120
-317 0 -4 30 -7 68 -7 l67 0 26 68 26 67 140 3 140 3 27 -71 28 -70 70 0 c38
0 68 4 66 9 -1 4 -61 160 -132 345 l-130 336 -68 0 c-66 0 -69 -1 -79 -27z
m130 -290 l39 -103 -90 0 c-49 0 -88 4 -86 9 64 163 84 209 90 203 4 -4 25
-53 47 -109z"/>
<path d="M14668 3627 c-20 -50 -40 -99 -43 -108 -5 -14 29 -39 55 -39 9 0 124
189 118 195 -5 4 -87 45 -90 45 -2 0 -20 -42 -40 -93z"/>
<path d="M5638 3304 l-58 -95 51 3 c51 3 53 4 137 96 l85 92 -79 0 -79 0 -57
-96z"/>
<path d="M1210 3165 c-174 -49 -288 -225 -260 -402 32 -197 196 -325 397 -310
164 12 281 120 313 286 16 84 21 81 -177 81 l-174 0 3 -62 3 -63 99 -5 100 -5
-33 -37 c-43 -50 -105 -72 -179 -65 -118 10 -203 89 -218 201 -9 62 1 105 36
158 77 115 246 135 367 42 l34 -26 42 38 c23 21 42 45 42 53 0 23 -90 86 -149
106 -73 24 -180 28 -246 10z"/>
<path d="M2527 3169 c-102 -24 -201 -104 -246 -199 -23 -48 -26 -68 -26 -155
0 -87 3 -107 27 -157 34 -73 104 -142 176 -176 48 -22 71 -27 147 -27 77 0 98
4 147 27 258 121 289 473 55 631 -86 59 -185 78 -280 56z m206 -165 c80 -55
115 -165 86 -269 -16 -56 -91 -129 -149 -145 -75 -20 -160 1 -218 54 -72 65
-90 201 -39 289 66 112 214 145 320 71z"/>
<path d="M3320 3164 c-75 -20 -145 -67 -189 -128 -55 -74 -73 -128 -73 -216 0
-225 173 -384 399 -367 96 7 167 41 227 108 61 68 92 154 87 242 -1 15 -16 17
-176 17 l-176 0 3 -62 3 -63 99 -5 99 -5 -29 -34 c-100 -119 -307 -84 -380 65
-22 45 -26 64 -22 113 14 195 240 281 406 154 l34 -26 47 47 46 47 -40 34
c-97 84 -236 114 -365 79z"/>
<path d="M7970 3166 c-205 -56 -317 -244 -266 -446 42 -165 181 -270 356 -270
100 0 223 51 282 117 17 18 16 21 -30 66 l-48 47 -25 -26 c-108 -116 -314 -90
-383 48 -30 59 -35 147 -13 201 66 155 270 191 400 69 l28 -26 47 48 47 47
-40 36 c-98 86 -238 121 -355 89z"/>
<path d="M10193 3165 c-113 -31 -189 -90 -240 -187 -26 -49 -28 -62 -28 -163
0 -92 4 -118 22 -157 32 -71 103 -141 176 -174 55 -26 73 -29 162 -29 82 0
109 4 149 23 56 25 146 91 146 106 0 6 -18 29 -41 52 l-41 42 -51 -38 c-61
-46 -121 -65 -187 -57 -115 14 -193 91 -207 205 -25 218 224 337 405 193 l37
-29 48 43 47 43 -45 40 c-54 47 -110 75 -183 91 -67 14 -104 13 -169 -4z"/>
<path d="M11790 3173 c-57 -21 -86 -42 -111 -82 -57 -89 -31 -173 84 -274 130
-113 157 -143 157 -171 0 -38 -33 -66 -77 -66 -30 0 -43 7 -78 44 l-41 44 -49
-30 c-28 -17 -51 -32 -53 -33 -8 -7 29 -62 60 -92 82 -79 221 -83 305 -10 45
39 63 82 63 147 0 71 -27 117 -112 192 -167 145 -179 164 -133 194 31 21 64
13 108 -25 l33 -30 48 41 47 41 -42 43 c-58 59 -150 88 -209 67z"/>
<path d="M12537 3166 c-75 -28 -117 -88 -117 -166 0 -62 31 -111 121 -192 129
-115 138 -124 145 -153 6 -23 2 -33 -20 -52 -43 -37 -82 -31 -131 21 l-42 44
-52 -30 c-28 -16 -51 -35 -51 -41 0 -6 12 -28 27 -50 56 -81 171 -116 270 -83
82 27 133 99 133 188 0 70 -33 121 -139 212 -126 110 -135 119 -127 150 12 49
94 42 136 -11 l19 -25 51 43 50 43 -32 34 c-66 68 -165 96 -241 68z"/>
<path d="M13179 3167 c-100 -29 -199 -112 -242 -205 -17 -38 -21 -66 -22 -147
0 -90 3 -106 28 -157 82 -166 258 -243 435 -189 94 28 176 101 218 193 38 83
40 202 5 291 -29 74 -110 158 -185 193 -67 30 -171 40 -237 21z m192 -148 c75
-37 119 -114 119 -206 -1 -160 -148 -270 -293 -219 -113 41 -170 145 -146 269
28 149 184 224 320 156z"/>
<path d="M13996 3169 c-63 -15 -155 -69 -196 -117 -108 -122 -115 -322 -17
-459 81 -114 252 -169 402 -129 67 17 102 36 152 83 l43 38 -44 47 -43 47 -34
-28 c-52 -43 -96 -62 -154 -68 -137 -14 -255 89 -255 224 0 67 15 112 51 156
87 106 254 110 362 9 l28 -26 47 48 47 47 -40 36 c-95 83 -231 119 -349 92z"/>
<path d="M16497 3170 c-76 -23 -127 -92 -127 -170 0 -62 31 -111 121 -192 129
-115 138 -124 145 -153 6 -23 2 -33 -20 -52 -43 -37 -82 -31 -131 21 l-42 44
-52 -30 c-28 -16 -51 -35 -51 -42 0 -7 12 -29 28 -48 132 -171 402 -105 402
98 0 78 -30 123 -152 230 -115 101 -127 117 -111 142 27 43 77 40 125 -9 l30
-29 50 42 51 42 -51 47 c-66 61 -141 81 -215 59z"/>
<path d="M1780 2815 l0 -345 190 0 190 0 0 65 0 65 -120 0 -120 0 0 90 0 90
120 0 120 0 0 65 0 65 -120 0 -120 0 0 60 0 60 120 0 120 0 0 65 0 65 -190 0
-190 0 0 -345z"/>
<path d="M3900 2816 l0 -346 70 0 70 0 0 148 1 147 77 -147 77 -148 73 0 c39
0 72 2 72 5 0 3 -34 69 -75 146 -41 78 -75 145 -75 149 0 5 9 11 19 15 32 10
89 81 97 120 11 60 -1 131 -29 173 -41 62 -80 75 -239 80 l-138 4 0 -346z
m245 202 c28 -13 40 -45 31 -82 -7 -27 -49 -46 -102 -46 l-34 0 0 70 0 70 40
0 c21 0 51 -5 65 -12z"/>
<path d="M4657 3153 c-3 -5 -62 -156 -132 -338 -70 -181 -129 -334 -132 -338
-3 -4 28 -7 68 -5 l73 3 26 65 26 65 141 3 140 3 25 -68 25 -68 71 -3 72 -3
-19 48 c-10 26 -70 182 -132 345 l-114 298 -67 0 c-37 0 -69 -3 -71 -7z m117
-301 c20 -50 36 -97 36 -102 0 -6 -36 -10 -86 -10 -78 0 -86 2 -80 18 50 133
80 202 86 195 4 -4 23 -50 44 -101z"/>
<path d="M5160 2815 l0 -345 65 0 65 0 0 155 0 155 110 0 111 0 -3 63 -3 62
-107 3 -108 3 0 59 0 60 110 0 110 0 0 65 0 65 -175 0 -175 0 0 -345z"/>
<path d="M5610 2815 l0 -345 65 0 65 0 0 345 0 345 -65 0 -65 0 0 -345z"/>
<path d="M5976 2848 c-66 -172 -126 -328 -133 -346 l-14 -33 72 3 72 3 26 68
26 67 140 0 140 0 25 -68 25 -67 71 -3 72 -3 -132 343 -132 343 -70 3 -69 2
-119 -312z m233 8 c23 -58 41 -107 41 -110 0 -3 -38 -6 -85 -6 -47 0 -85 4
-85 8 0 4 15 46 34 93 18 46 36 92 39 102 4 9 8 17 11 17 2 0 23 -47 45 -104z"/>
<path d="M6820 3153 c0 -3 45 -93 100 -199 l100 -193 0 -145 0 -146 65 0 65 0
0 146 0 147 100 192 c55 106 100 195 100 199 0 3 -31 6 -70 6 l-70 0 -61 -121
-61 -122 -19 32 c-11 18 -39 72 -64 121 l-45 90 -70 0 c-39 0 -70 -3 -70 -7z"/>
<path d="M8460 2815 l0 -345 70 0 70 0 0 345 0 345 -70 0 -70 0 0 -345z"/>
<path d="M8740 2815 l0 -345 190 0 190 0 0 65 0 65 -120 0 -120 0 0 90 0 90
120 0 120 0 0 65 0 65 -120 0 -120 0 0 60 0 60 120 0 120 0 0 65 0 65 -190 0
-190 0 0 -345z"/>
<path d="M9240 2815 l0 -345 70 0 70 0 2 217 3 216 140 -216 140 -217 68 0 67
0 0 345 0 345 -70 0 -70 0 -2 -219 -3 -218 -140 216 -141 216 -67 3 -67 3 0
-346z"/>
<path d="M10690 2815 l0 -345 65 0 65 0 0 345 0 345 -65 0 -65 0 0 -345z"/>
<path d="M11165 3128 c-7 -18 -66 -170 -130 -338 -64 -168 -119 -309 -122
-313 -3 -4 28 -7 68 -5 l73 3 26 65 26 65 140 3 139 3 26 -68 26 -68 72 -3 71
-3 -19 48 c-10 26 -70 182 -132 345 l-114 298 -68 0 c-67 0 -68 0 -82 -32z
m129 -278 c20 -52 36 -98 36 -102 0 -5 -38 -8 -85 -8 -47 0 -85 2 -85 5 0 20
84 215 90 208 4 -4 24 -51 44 -103z"/>
<path d="M14490 2815 l0 -345 65 0 65 0 0 345 0 345 -65 0 -65 0 0 -345z"/>
<path d="M14845 2824 c-72 -185 -131 -341 -133 -345 -2 -5 28 -9 66 -9 l70 0
28 70 27 71 141 -3 141 -3 24 -67 25 -68 68 0 c37 0 68 3 68 8 0 4 -58 158
-129 342 l-129 335 -69 3 -69 3 -129 -337z m244 28 c23 -56 41 -105 41 -107 0
-3 -40 -5 -89 -5 l-89 0 35 88 c19 48 39 98 44 111 5 13 11 22 13 20 3 -2 23
-50 45 -107z"/>
<path d="M15470 2815 l0 -345 165 0 166 0 -3 63 -3 62 -92 3 -93 3 0 279 0
280 -70 0 -70 0 0 -345z"/>
<path d="M15900 2815 l0 -345 190 0 190 0 0 65 0 65 -125 0 -125 0 0 90 0 90
125 0 126 0 -3 63 -3 62 -122 3 -123 3 0 59 0 60 125 0 125 0 0 65 0 65 -190
0 -190 0 0 -345z"/>
</g>
</svg>
